<svg xmlns="http://www.w3.org/2000/svg" width="14.969" height="20.135" viewBox="0 0 14.969 20.135"><g transform="translate(-5.627 -1.238)"><path d="M16.108,8.971a2.754,2.754,0,1,0,2.754,2.754A2.754,2.754,0,0,0,16.108,8.971Zm0,4.131a1.377,1.377,0,1,1,1.377-1.377A1.377,1.377,0,0,1,16.108,13.1Z" transform="translate(-2.998 -3)" fill="#796ac8"/><path d="M18.4,3.429A7.485,7.485,0,0,0,6.839,12.806l5.2,7.988a1.275,1.275,0,0,0,2.136,0l5.2-7.988A7.485,7.485,0,0,0,18.4,3.429Zm-.175,8.626-5.117,7.856L7.993,12.055a6.108,6.108,0,1,1,10.235,0Z" transform="translate(0 0)" fill="#796ac8"/></g></svg>