<svg xmlns="http://www.w3.org/2000/svg" width="22.408" height="19.18" viewBox="0 0 22.408 19.18"><g transform="translate(-2.995 -4)"><path d="M24.656,11.535h-.747V7.425a.718.718,0,0,0-.747-.685H5.239a.734.734,0,0,1-.747-.562V5.932a.734.734,0,0,1,.747-.562H22.848a.718.718,0,0,0,.747-.685A.718.718,0,0,0,22.848,4H5.239A2.154,2.154,0,0,0,3,6.055,1.936,1.936,0,0,0,3,6.3v14.09A2.948,2.948,0,0,0,6.083,23.18H23.162a.718.718,0,0,0,.747-.685v-4.11h.747A.718.718,0,0,0,25.4,17.7V12.22A.718.718,0,0,0,24.656,11.535ZM22.415,21.81H6.083a1.519,1.519,0,0,1-1.591-1.418V8.028a2.521,2.521,0,0,0,.747.082H22.415v3.425H17.188a3.589,3.589,0,0,0-3.734,3.425,3.589,3.589,0,0,0,3.734,3.425h5.228Zm1.494-4.795H17.188a2.154,2.154,0,0,1-2.24-2.055,2.154,2.154,0,0,1,2.24-2.055h6.721Z" fill="#796ac8"/><path d="M23.75,19.62a1.12,1.12,0,1,1-1.12-1.12A1.12,1.12,0,0,1,23.75,19.62Z" transform="translate(-4.688 -4.675)" fill="#796ac8"/></g></svg>