<svg xmlns="http://www.w3.org/2000/svg" width="476.609" height="320.257" viewBox="0 0 476.609 320.257">
  <path id="chair" d="M431.927,320.246q-18.614,0-31.655-10.773t-13.027-26.178V160.123q0-16.171,20.944-38.878t38.632-22.707a20.23,20.23,0,0,1,15.132,6.547,38.257,38.257,0,0,1,9.082,16.937,174.517,174.517,0,0,1,4.184,19.828,125.45,125.45,0,0,1,1.39,18.284V283.306q0,15.394-13.027,26.178t-31.655,10.773ZM327.668,147.806H148.94q-12.564,0-21.183-7.314t-8.605-17.321L89.364,24.634q0-10.39,8.605-17.518T119.152,0h238.3A31.833,31.833,0,0,1,378.4,7.314q8.844,7.314,8.844,17.321l-29.788,98.537q0,10.007-8.844,17.321A31.833,31.833,0,0,1,327.668,147.806ZM89.364,283.295q0,15.394-13.027,26.178T44.682,320.246q-18.627-.011-31.655-10.773T0,283.295V160.123a149.084,149.084,0,0,1,1.165-18.284,127.405,127.405,0,0,1,4.184-19.828,40.012,40.012,0,0,1,9.307-16.937,20.246,20.246,0,0,1,15.132-6.536q17.687,0,38.632,22.707t20.944,38.878ZM148.94,172.44H327.668a32.386,32.386,0,0,1,20.944,7.117q8.844,7.117,8.844,17.321T348.613,214.4a31.833,31.833,0,0,1-20.944,7.314H148.94q-12.564,0-21.183-7.314t-8.605-17.518q.013-10.2,8.605-17.321T148.94,172.44Zm0,73.9H327.668a32.386,32.386,0,0,1,20.944,7.117q8.844,7.117,8.844,17.518v24.634q0,10.007-8.844,17.321a31.833,31.833,0,0,1-20.944,7.314H148.94q-12.564,0-21.183-7.314t-8.605-17.321V270.978q0-10.39,8.605-17.518T148.94,246.343Z" fill="#796ac8"/>
</svg>
