<svg xmlns="http://www.w3.org/2000/svg" width="479.61" height="323.26" viewBox="0 0 479.61 323.26">
  <path id="chair" d="M431.928,320.249q-18.614,0-31.655-10.773T387.246,283.3V160.125q0-16.171,20.944-38.879t38.632-22.708a20.23,20.23,0,0,1,15.132,6.547,38.257,38.257,0,0,1,9.082,16.938,174.527,174.527,0,0,1,4.184,19.828,125.457,125.457,0,0,1,1.39,18.284V283.308q0,15.394-13.027,26.178T431.928,320.26ZM327.669,147.807H148.941q-12.564,0-21.183-7.314t-8.605-17.321L89.364,24.635q0-10.39,8.605-17.518T119.152,0h238.3A31.833,31.833,0,0,1,378.4,7.314q8.844,7.314,8.844,17.321l-29.788,98.538q0,10.007-8.844,17.321A31.833,31.833,0,0,1,327.669,147.807ZM89.364,283.3q0,15.394-13.027,26.178T44.682,320.249q-18.628-.011-31.655-10.773T0,283.3V160.125A149.087,149.087,0,0,1,1.165,141.84a127.407,127.407,0,0,1,4.184-19.828,40.013,40.013,0,0,1,9.307-16.938,20.246,20.246,0,0,1,15.132-6.536q17.688,0,38.632,22.708t20.944,38.879Zm59.576-110.855H327.669a32.386,32.386,0,0,1,20.944,7.117q8.844,7.117,8.844,17.321T348.614,214.4a31.833,31.833,0,0,1-20.944,7.314H148.941q-12.564,0-21.183-7.314t-8.605-17.518q.013-10.2,8.605-17.321T148.941,172.442Zm0,73.9H327.669a32.386,32.386,0,0,1,20.944,7.117q8.844,7.117,8.844,17.518v24.635q0,10.007-8.844,17.321a31.833,31.833,0,0,1-20.944,7.314H148.941q-12.564,0-21.183-7.314t-8.605-17.321V270.98q0-10.39,8.605-17.518T148.941,246.345Z" transform="translate(1.5 1.5)" fill="none" stroke="#796ac8" stroke-width="3"/>
</svg>
